<svg xmlns="http://www.w3.org/2000/svg" width="30" height="30" viewBox="0 0 30 30">
  <defs>
    <linearGradient id="handPurple" x1="6" y1="3" x2="22" y2="27" gradientUnits="userSpaceOnUse">
      <stop stop-color="#BBA8F7"/>
      <stop offset=".48" stop-color="#7C5CF6"/>
      <stop offset="1" stop-color="#4A37C0"/>
    </linearGradient>
    <filter id="handShadow" x="-45%" y="-35%" width="200%" height="200%">
      <feDropShadow dx="0" dy="2" stdDeviation="1.5" flood-color="#2A1C72" flood-opacity=".42"/>
    </filter>
  </defs>
  <!-- Pointing hand: index finger up, three knuckles, palm and thumb.
       Hotspot is the fingertip at roughly (11, 3). -->
  <path
    d="M11.1 3.4a1.85 1.85 0 0 1 3.7 0v8.15a1.75 1.75 0 0 1 3.4.6v.55a1.75 1.75 0 0 1 3.35.62v.6a1.75 1.75 0 0 1 3.3.75v3.5c0 4.35-3.05 7.55-7.35 7.55h-1.85c-2.45 0-4.15-1.0-5.35-2.75l-3.95-5.75a1.95 1.95 0 0 1 3.1-2.35l1.65 2.1Z"
    fill="url(#handPurple)"
    stroke="#fff"
    stroke-width="1.55"
    stroke-linejoin="round"
    filter="url(#handShadow)"
  />
  <!-- Glassy highlight along the index finger -->
  <path d="M12.95 6.1v6.4" fill="none" stroke="#fff" stroke-opacity=".5" stroke-width="1.1" stroke-linecap="round"/>
</svg>
