<svg xmlns="http://www.w3.org/2000/svg" width="30" height="30" viewBox="0 0 30 30">
  <defs>
    <linearGradient id="grabbingPurple" x1="7" y1="8" x2="23" y2="26" gradientUnits="userSpaceOnUse">
      <stop stop-color="#BBA8F7"/>
      <stop offset=".48" stop-color="#7C5CF6"/>
      <stop offset="1" stop-color="#4A37C0"/>
    </linearGradient>
    <filter id="grabbingShadow" x="-45%" y="-35%" width="200%" height="200%">
      <feDropShadow dx="0" dy="2" stdDeviation="1.5" flood-color="#2A1C72" flood-opacity=".42"/>
    </filter>
  </defs>
  <!-- Closed fist: same hand, fingers curled. Hotspot centred at (15, 12). -->
  <path
    d="M9.4 15.1v-2.6a1.7 1.7 0 0 1 3.4 0v-1.2a1.7 1.7 0 0 1 3.4 0v.6a1.7 1.7 0 0 1 3.35 0v.9a1.7 1.7 0 0 1 3.25.6v4.2c0 4.4-3.05 7.5-7.3 7.5h-1.6c-2.45 0-4.15-1.0-5.35-2.75l-3.3-4.8a1.95 1.95 0 0 1 3.1-2.35Z"
    fill="url(#grabbingPurple)"
    stroke="#fff"
    stroke-width="1.55"
    stroke-linejoin="round"
    filter="url(#grabbingShadow)"
  />
  <!-- Curled knuckle creases -->
  <path d="M12.9 14.1h2.6M16.3 13.6h2.5M19.6 14.3h2.2" fill="none" stroke="#fff" stroke-opacity=".45" stroke-width="1" stroke-linecap="round"/>
</svg>
