<svg xmlns="http://www.w3.org/2000/svg" width="30" height="30" viewBox="0 0 30 30">
  <defs>
    <linearGradient id="grabPurple" x1="6" y1="4" x2="24" y2="27" gradientUnits="userSpaceOnUse">
      <stop stop-color="#BBA8F7"/>
      <stop offset=".48" stop-color="#7C5CF6"/>
      <stop offset="1" stop-color="#4A37C0"/>
    </linearGradient>
    <filter id="grabShadow" x="-45%" y="-35%" width="200%" height="200%">
      <feDropShadow dx="0" dy="2" stdDeviation="1.5" flood-color="#2A1C72" flood-opacity=".42"/>
    </filter>
  </defs>
  <!-- Open hand, fingers extended, ready to grab. Hotspot centred at (15, 12). -->
  <path
    d="M9.6 15.4V8.9a1.7 1.7 0 0 1 3.4 0V7.3a1.7 1.7 0 0 1 3.4 0v.9a1.7 1.7 0 0 1 3.4 0v1.5a1.7 1.7 0 0 1 3.3.6v6.1c0 4.4-3.05 7.6-7.35 7.6h-1.6c-2.45 0-4.15-1.0-5.35-2.75l-3.5-5.1a1.95 1.95 0 0 1 3.1-2.35Z"
    fill="url(#grabPurple)"
    stroke="#fff"
    stroke-width="1.55"
    stroke-linejoin="round"
    filter="url(#grabShadow)"
  />
  <path d="M13 11.4v4.1M16.4 10.6v4.9M19.8 11.6v3.9" fill="none" stroke="#fff" stroke-opacity=".42" stroke-width="1" stroke-linecap="round"/>
</svg>
